<mxfile host="app.diagrams.net" modified="2023-12-26T22:00:08.553Z" agent="Mozilla/5.0 (Windows NT 10.0; Win64; x64) AppleWebKit/537.36 (KHTML, like Gecko) Chrome/119.0.0.0 Safari/537.36 OPR/105.0.0.0" etag="c6kRgWMC4Hk_slZOekEH" version="22.1.11" type="device">
  <diagram name="Page-1" id="TY8VAEsPMK9BNIJK5fV_">
    <mxGraphModel dx="2382" dy="1908" grid="1" gridSize="10" guides="1" tooltips="1" connect="1" arrows="1" fold="1" page="1" pageScale="1" pageWidth="850" pageHeight="1100" math="0" shadow="0">
      <root>
        <mxCell id="0" />
        <mxCell id="1" parent="0" />
        <mxCell id="zBz3HRhVmVCNC_SRRcaX-26" style="rounded=0;orthogonalLoop=1;jettySize=auto;html=1;edgeStyle=orthogonalEdgeStyle;endArrow=none;endFill=0;exitX=0.5;exitY=0;exitDx=0;exitDy=0;" edge="1" parent="1" target="zBz3HRhVmVCNC_SRRcaX-18">
          <mxGeometry relative="1" as="geometry">
            <mxPoint x="30" y="390" as="sourcePoint" />
            <mxPoint x="380" y="253.99761904761903" as="targetPoint" />
            <Array as="points">
              <mxPoint x="30" y="330" />
              <mxPoint x="381" y="330" />
            </Array>
          </mxGeometry>
        </mxCell>
        <mxCell id="zBz3HRhVmVCNC_SRRcaX-1" value="&lt;div style=&quot;background-color: rgb(43, 43, 43); color: rgb(169, 183, 198); font-family: &amp;quot;JetBrains Mono&amp;quot;, monospace; font-size: 9.8pt;&quot;&gt;Addition&lt;/div&gt;" style="swimlane;fontStyle=0;childLayout=stackLayout;horizontal=1;startSize=26;fillColor=none;horizontalStack=0;resizeParent=1;resizeParentMax=0;resizeLast=0;collapsible=1;marginBottom=0;whiteSpace=wrap;html=1;" vertex="1" parent="1">
          <mxGeometry x="-30" y="390" width="140" height="52" as="geometry" />
        </mxCell>
        <mxCell id="zBz3HRhVmVCNC_SRRcaX-2" value="&lt;div style=&quot;background-color: rgb(43, 43, 43); color: rgb(169, 183, 198); font-family: &amp;quot;JetBrains Mono&amp;quot;, monospace; font-size: 9.8pt;&quot;&gt;+calculate(&lt;span style=&quot;color:#9876aa;&quot;&gt;$a&lt;/span&gt;&lt;span style=&quot;color:#cc7832;&quot;&gt;,&lt;/span&gt;&lt;span style=&quot;color:#9876aa;&quot;&gt;$b&lt;/span&gt;)&lt;/div&gt;" style="text;strokeColor=none;fillColor=none;align=left;verticalAlign=top;spacingLeft=4;spacingRight=4;overflow=hidden;rotatable=0;points=[[0,0.5],[1,0.5]];portConstraint=eastwest;whiteSpace=wrap;html=1;" vertex="1" parent="zBz3HRhVmVCNC_SRRcaX-1">
          <mxGeometry y="26" width="140" height="26" as="geometry" />
        </mxCell>
        <mxCell id="zBz3HRhVmVCNC_SRRcaX-29" style="edgeStyle=orthogonalEdgeStyle;rounded=0;orthogonalLoop=1;jettySize=auto;html=1;endArrow=none;endFill=0;" edge="1" parent="1" source="zBz3HRhVmVCNC_SRRcaX-5">
          <mxGeometry relative="1" as="geometry">
            <mxPoint x="370" y="330" as="targetPoint" />
            <Array as="points">
              <mxPoint x="620" y="330" />
              <mxPoint x="388" y="330" />
            </Array>
          </mxGeometry>
        </mxCell>
        <mxCell id="zBz3HRhVmVCNC_SRRcaX-5" value="&lt;div style=&quot;background-color: rgb(43, 43, 43); color: rgb(169, 183, 198); font-family: &amp;quot;JetBrains Mono&amp;quot;, monospace; font-size: 9.8pt;&quot;&gt;Multiplication&lt;/div&gt;" style="swimlane;fontStyle=0;childLayout=stackLayout;horizontal=1;startSize=26;fillColor=none;horizontalStack=0;resizeParent=1;resizeParentMax=0;resizeLast=0;collapsible=1;marginBottom=0;whiteSpace=wrap;html=1;" vertex="1" parent="1">
          <mxGeometry x="550" y="390" width="140" height="52" as="geometry" />
        </mxCell>
        <mxCell id="zBz3HRhVmVCNC_SRRcaX-6" value="+calculate(&lt;span style=&quot;border-color: var(--border-color); font-family: &amp;quot;JetBrains Mono&amp;quot;, monospace; font-size: 13.0667px; color: rgb(152, 118, 170);&quot;&gt;$a&lt;/span&gt;&lt;span style=&quot;border-color: var(--border-color); font-family: &amp;quot;JetBrains Mono&amp;quot;, monospace; font-size: 13.0667px; color: rgb(204, 120, 50);&quot;&gt;,&lt;/span&gt;&lt;span style=&quot;border-color: var(--border-color); font-family: &amp;quot;JetBrains Mono&amp;quot;, monospace; font-size: 13.0667px; color: rgb(152, 118, 170);&quot;&gt;$b&lt;/span&gt;&lt;span style=&quot;color: rgb(169, 183, 198); font-family: &amp;quot;JetBrains Mono&amp;quot;, monospace; font-size: 13.0667px; background-color: rgb(43, 43, 43);&quot;&gt;)&lt;/span&gt;" style="text;strokeColor=none;fillColor=none;align=left;verticalAlign=top;spacingLeft=4;spacingRight=4;overflow=hidden;rotatable=0;points=[[0,0.5],[1,0.5]];portConstraint=eastwest;whiteSpace=wrap;html=1;" vertex="1" parent="zBz3HRhVmVCNC_SRRcaX-5">
          <mxGeometry y="26" width="140" height="26" as="geometry" />
        </mxCell>
        <mxCell id="zBz3HRhVmVCNC_SRRcaX-28" style="edgeStyle=none;rounded=0;orthogonalLoop=1;jettySize=auto;html=1;exitX=0.5;exitY=0;exitDx=0;exitDy=0;endArrow=none;endFill=0;" edge="1" parent="1" source="zBz3HRhVmVCNC_SRRcaX-9">
          <mxGeometry relative="1" as="geometry">
            <mxPoint x="240.04761904761904" y="330" as="targetPoint" />
          </mxGeometry>
        </mxCell>
        <mxCell id="zBz3HRhVmVCNC_SRRcaX-9" value="&lt;div style=&quot;background-color: rgb(43, 43, 43); color: rgb(169, 183, 198); font-family: &amp;quot;JetBrains Mono&amp;quot;, monospace; font-size: 9.8pt;&quot;&gt;Subtraction&lt;/div&gt;" style="swimlane;fontStyle=0;childLayout=stackLayout;horizontal=1;startSize=26;fillColor=none;horizontalStack=0;resizeParent=1;resizeParentMax=0;resizeLast=0;collapsible=1;marginBottom=0;whiteSpace=wrap;html=1;" vertex="1" parent="1">
          <mxGeometry x="170" y="390" width="140" height="52" as="geometry" />
        </mxCell>
        <mxCell id="zBz3HRhVmVCNC_SRRcaX-10" value="+calculate(&lt;span style=&quot;border-color: var(--border-color); font-family: &amp;quot;JetBrains Mono&amp;quot;, monospace; font-size: 13.0667px; color: rgb(152, 118, 170);&quot;&gt;$a&lt;/span&gt;&lt;span style=&quot;border-color: var(--border-color); font-family: &amp;quot;JetBrains Mono&amp;quot;, monospace; font-size: 13.0667px; color: rgb(204, 120, 50);&quot;&gt;,&lt;/span&gt;&lt;span style=&quot;border-color: var(--border-color); font-family: &amp;quot;JetBrains Mono&amp;quot;, monospace; font-size: 13.0667px; color: rgb(152, 118, 170);&quot;&gt;$b&lt;/span&gt;&lt;span style=&quot;color: rgb(169, 183, 198); font-family: &amp;quot;JetBrains Mono&amp;quot;, monospace; font-size: 13.0667px; background-color: rgb(43, 43, 43);&quot;&gt;)&lt;/span&gt;" style="text;strokeColor=none;fillColor=none;align=left;verticalAlign=top;spacingLeft=4;spacingRight=4;overflow=hidden;rotatable=0;points=[[0,0.5],[1,0.5]];portConstraint=eastwest;whiteSpace=wrap;html=1;" vertex="1" parent="zBz3HRhVmVCNC_SRRcaX-9">
          <mxGeometry y="26" width="140" height="26" as="geometry" />
        </mxCell>
        <mxCell id="zBz3HRhVmVCNC_SRRcaX-30" style="edgeStyle=none;rounded=0;orthogonalLoop=1;jettySize=auto;html=1;exitX=0.5;exitY=0;exitDx=0;exitDy=0;endArrow=none;endFill=0;" edge="1" parent="1" source="zBz3HRhVmVCNC_SRRcaX-13">
          <mxGeometry relative="1" as="geometry">
            <mxPoint x="425.2222222222222" y="330" as="targetPoint" />
          </mxGeometry>
        </mxCell>
        <mxCell id="zBz3HRhVmVCNC_SRRcaX-13" value="&lt;div style=&quot;background-color: rgb(43, 43, 43); color: rgb(169, 183, 198); font-family: &amp;quot;JetBrains Mono&amp;quot;, monospace; font-size: 9.8pt;&quot;&gt;Division&lt;/div&gt;" style="swimlane;fontStyle=0;childLayout=stackLayout;horizontal=1;startSize=26;fillColor=none;horizontalStack=0;resizeParent=1;resizeParentMax=0;resizeLast=0;collapsible=1;marginBottom=0;whiteSpace=wrap;html=1;" vertex="1" parent="1">
          <mxGeometry x="355" y="390" width="140" height="52" as="geometry" />
        </mxCell>
        <mxCell id="zBz3HRhVmVCNC_SRRcaX-14" value="+calculate(&lt;span style=&quot;border-color: var(--border-color); font-family: &amp;quot;JetBrains Mono&amp;quot;, monospace; font-size: 13.0667px; color: rgb(152, 118, 170);&quot;&gt;$a&lt;/span&gt;&lt;span style=&quot;border-color: var(--border-color); font-family: &amp;quot;JetBrains Mono&amp;quot;, monospace; font-size: 13.0667px; color: rgb(204, 120, 50);&quot;&gt;,&lt;/span&gt;&lt;span style=&quot;border-color: var(--border-color); font-family: &amp;quot;JetBrains Mono&amp;quot;, monospace; font-size: 13.0667px; color: rgb(152, 118, 170);&quot;&gt;$b&lt;/span&gt;&lt;span style=&quot;color: rgb(169, 183, 198); font-family: &amp;quot;JetBrains Mono&amp;quot;, monospace; font-size: 13.0667px; background-color: rgb(43, 43, 43);&quot;&gt;)&lt;/span&gt;" style="text;strokeColor=none;fillColor=none;align=left;verticalAlign=top;spacingLeft=4;spacingRight=4;overflow=hidden;rotatable=0;points=[[0,0.5],[1,0.5]];portConstraint=eastwest;whiteSpace=wrap;html=1;" vertex="1" parent="zBz3HRhVmVCNC_SRRcaX-13">
          <mxGeometry y="26" width="140" height="26" as="geometry" />
        </mxCell>
        <mxCell id="zBz3HRhVmVCNC_SRRcaX-17" value="&lt;div style=&quot;background-color: rgb(43, 43, 43); color: rgb(169, 183, 198); font-family: &amp;quot;JetBrains Mono&amp;quot;, monospace; font-size: 9.8pt;&quot;&gt;CalculatorService&lt;/div&gt;" style="swimlane;fontStyle=0;childLayout=stackLayout;horizontal=1;startSize=26;fillColor=none;horizontalStack=0;resizeParent=1;resizeParentMax=0;resizeLast=0;collapsible=1;marginBottom=0;whiteSpace=wrap;html=1;" vertex="1" parent="1">
          <mxGeometry x="240" y="170" width="280" height="52" as="geometry" />
        </mxCell>
        <mxCell id="zBz3HRhVmVCNC_SRRcaX-18" value="+&amp;nbsp;calculate&lt;span style=&quot;background-color: rgb(43, 43, 43); color: rgb(169, 183, 198); font-family: &amp;quot;JetBrains Mono&amp;quot;, monospace; font-size: 9.8pt;&quot;&gt;(&lt;/span&gt;&lt;span style=&quot;font-family: &amp;quot;JetBrains Mono&amp;quot;, monospace; font-size: 9.8pt; color: rgb(152, 118, 170);&quot;&gt;$operation&lt;/span&gt;&lt;span style=&quot;font-family: &amp;quot;JetBrains Mono&amp;quot;, monospace; font-size: 9.8pt; color: rgb(204, 120, 50);&quot;&gt;, &lt;/span&gt;&lt;span style=&quot;font-family: &amp;quot;JetBrains Mono&amp;quot;, monospace; font-size: 9.8pt; color: rgb(152, 118, 170);&quot;&gt;$arrayoperands&lt;/span&gt;&lt;span style=&quot;background-color: rgb(43, 43, 43); color: rgb(169, 183, 198); font-family: &amp;quot;JetBrains Mono&amp;quot;, monospace; font-size: 9.8pt;&quot;&gt;)&lt;/span&gt;" style="text;strokeColor=none;fillColor=none;align=left;verticalAlign=top;spacingLeft=4;spacingRight=4;overflow=hidden;rotatable=0;points=[[0,0.5],[1,0.5]];portConstraint=eastwest;whiteSpace=wrap;html=1;" vertex="1" parent="zBz3HRhVmVCNC_SRRcaX-17">
          <mxGeometry y="26" width="280" height="26" as="geometry" />
        </mxCell>
        <mxCell id="zBz3HRhVmVCNC_SRRcaX-31" value="Manage" style="text;align=center;fontStyle=1;verticalAlign=middle;spacingLeft=3;spacingRight=3;strokeColor=none;rotatable=0;points=[[0,0.5],[1,0.5]];portConstraint=eastwest;html=1;" vertex="1" parent="1">
          <mxGeometry x="300" y="280" width="80" height="26" as="geometry" />
        </mxCell>
        <mxCell id="zBz3HRhVmVCNC_SRRcaX-35" value="BaseController (Laravel Breeze)" style="swimlane;fontStyle=0;childLayout=stackLayout;horizontal=1;startSize=26;fillColor=none;horizontalStack=0;resizeParent=1;resizeParentMax=0;resizeLast=0;collapsible=1;marginBottom=0;whiteSpace=wrap;html=1;" vertex="1" parent="1">
          <mxGeometry x="10" y="-100" width="140" height="52" as="geometry" />
        </mxCell>
        <mxCell id="zBz3HRhVmVCNC_SRRcaX-39" value="ProfileController" style="swimlane;fontStyle=0;childLayout=stackLayout;horizontal=1;startSize=26;fillColor=none;horizontalStack=0;resizeParent=1;resizeParentMax=0;resizeLast=0;collapsible=1;marginBottom=0;whiteSpace=wrap;html=1;" vertex="1" parent="1">
          <mxGeometry x="-200" y="120" width="230" height="104" as="geometry" />
        </mxCell>
        <mxCell id="zBz3HRhVmVCNC_SRRcaX-40" value="+ edit(Request $request)" style="text;strokeColor=none;fillColor=none;align=left;verticalAlign=top;spacingLeft=4;spacingRight=4;overflow=hidden;rotatable=0;points=[[0,0.5],[1,0.5]];portConstraint=eastwest;whiteSpace=wrap;html=1;" vertex="1" parent="zBz3HRhVmVCNC_SRRcaX-39">
          <mxGeometry y="26" width="230" height="26" as="geometry" />
        </mxCell>
        <mxCell id="zBz3HRhVmVCNC_SRRcaX-81" value="+ update(Request $request)" style="text;strokeColor=none;fillColor=none;align=left;verticalAlign=top;spacingLeft=4;spacingRight=4;overflow=hidden;rotatable=0;points=[[0,0.5],[1,0.5]];portConstraint=eastwest;whiteSpace=wrap;html=1;" vertex="1" parent="zBz3HRhVmVCNC_SRRcaX-39">
          <mxGeometry y="52" width="230" height="26" as="geometry" />
        </mxCell>
        <mxCell id="zBz3HRhVmVCNC_SRRcaX-82" value="+ destroy(Request $request)" style="text;strokeColor=none;fillColor=none;align=left;verticalAlign=top;spacingLeft=4;spacingRight=4;overflow=hidden;rotatable=0;points=[[0,0.5],[1,0.5]];portConstraint=eastwest;whiteSpace=wrap;html=1;" vertex="1" parent="zBz3HRhVmVCNC_SRRcaX-39">
          <mxGeometry y="78" width="230" height="26" as="geometry" />
        </mxCell>
        <mxCell id="zBz3HRhVmVCNC_SRRcaX-71" style="edgeStyle=none;rounded=0;orthogonalLoop=1;jettySize=auto;html=1;entryX=0.5;entryY=0;entryDx=0;entryDy=0;endArrow=none;endFill=0;" edge="1" parent="1" source="zBz3HRhVmVCNC_SRRcaX-44" target="zBz3HRhVmVCNC_SRRcaX-17">
          <mxGeometry relative="1" as="geometry" />
        </mxCell>
        <mxCell id="zBz3HRhVmVCNC_SRRcaX-74" style="edgeStyle=none;rounded=0;orthogonalLoop=1;jettySize=auto;html=1;endArrow=none;endFill=0;" edge="1" parent="1" source="zBz3HRhVmVCNC_SRRcaX-44" target="zBz3HRhVmVCNC_SRRcaX-50">
          <mxGeometry relative="1" as="geometry" />
        </mxCell>
        <mxCell id="zBz3HRhVmVCNC_SRRcaX-44" value="CalculatorController" style="swimlane;fontStyle=0;childLayout=stackLayout;horizontal=1;startSize=26;fillColor=none;horizontalStack=0;resizeParent=1;resizeParentMax=0;resizeLast=0;collapsible=1;marginBottom=0;whiteSpace=wrap;html=1;" vertex="1" parent="1">
          <mxGeometry x="215" y="-80" width="280" height="182" as="geometry" />
        </mxCell>
        <mxCell id="zBz3HRhVmVCNC_SRRcaX-45" value="#&amp;nbsp;&amp;nbsp;&lt;span style=&quot;font-family: &amp;quot;JetBrains Mono&amp;quot;, monospace; font-size: 9.8pt; color: rgb(152, 118, 170);&quot;&gt;calculatorService :&amp;nbsp;&lt;/span&gt;CalculatorService" style="text;strokeColor=none;fillColor=none;align=left;verticalAlign=top;spacingLeft=4;spacingRight=4;overflow=hidden;rotatable=0;points=[[0,0.5],[1,0.5]];portConstraint=eastwest;whiteSpace=wrap;html=1;" vertex="1" parent="zBz3HRhVmVCNC_SRRcaX-44">
          <mxGeometry y="26" width="280" height="26" as="geometry" />
        </mxCell>
        <mxCell id="zBz3HRhVmVCNC_SRRcaX-46" value="+ CalculatorController()" style="text;strokeColor=none;fillColor=none;align=left;verticalAlign=top;spacingLeft=4;spacingRight=4;overflow=hidden;rotatable=0;points=[[0,0.5],[1,0.5]];portConstraint=eastwest;whiteSpace=wrap;html=1;" vertex="1" parent="zBz3HRhVmVCNC_SRRcaX-44">
          <mxGeometry y="52" width="280" height="26" as="geometry" />
        </mxCell>
        <mxCell id="zBz3HRhVmVCNC_SRRcaX-47" value="+&amp;nbsp; getHistory (Request $request)" style="text;strokeColor=none;fillColor=none;align=left;verticalAlign=top;spacingLeft=4;spacingRight=4;overflow=hidden;rotatable=0;points=[[0,0.5],[1,0.5]];portConstraint=eastwest;whiteSpace=wrap;html=1;" vertex="1" parent="zBz3HRhVmVCNC_SRRcaX-44">
          <mxGeometry y="78" width="280" height="26" as="geometry" />
        </mxCell>
        <mxCell id="zBz3HRhVmVCNC_SRRcaX-76" value="+&amp;nbsp; showHistory()" style="text;strokeColor=none;fillColor=none;align=left;verticalAlign=top;spacingLeft=4;spacingRight=4;overflow=hidden;rotatable=0;points=[[0,0.5],[1,0.5]];portConstraint=eastwest;whiteSpace=wrap;html=1;" vertex="1" parent="zBz3HRhVmVCNC_SRRcaX-44">
          <mxGeometry y="104" width="280" height="26" as="geometry" />
        </mxCell>
        <mxCell id="zBz3HRhVmVCNC_SRRcaX-77" value="+&amp;nbsp; calculateApi(Request $request)" style="text;strokeColor=none;fillColor=none;align=left;verticalAlign=top;spacingLeft=4;spacingRight=4;overflow=hidden;rotatable=0;points=[[0,0.5],[1,0.5]];portConstraint=eastwest;whiteSpace=wrap;html=1;" vertex="1" parent="zBz3HRhVmVCNC_SRRcaX-44">
          <mxGeometry y="130" width="280" height="26" as="geometry" />
        </mxCell>
        <mxCell id="zBz3HRhVmVCNC_SRRcaX-78" value="+&amp;nbsp; calculate(Request $request)" style="text;strokeColor=none;fillColor=none;align=left;verticalAlign=top;spacingLeft=4;spacingRight=4;overflow=hidden;rotatable=0;points=[[0,0.5],[1,0.5]];portConstraint=eastwest;whiteSpace=wrap;html=1;" vertex="1" parent="zBz3HRhVmVCNC_SRRcaX-44">
          <mxGeometry y="156" width="280" height="26" as="geometry" />
        </mxCell>
        <mxCell id="zBz3HRhVmVCNC_SRRcaX-50" value="CalculationModel" style="swimlane;fontStyle=0;childLayout=stackLayout;horizontal=1;startSize=26;fillColor=none;horizontalStack=0;resizeParent=1;resizeParentMax=0;resizeLast=0;collapsible=1;marginBottom=0;whiteSpace=wrap;html=1;" vertex="1" parent="1">
          <mxGeometry x="650" y="-10" width="140" height="52" as="geometry" />
        </mxCell>
        <mxCell id="zBz3HRhVmVCNC_SRRcaX-51" value="# fillable" style="text;strokeColor=none;fillColor=none;align=left;verticalAlign=top;spacingLeft=4;spacingRight=4;overflow=hidden;rotatable=0;points=[[0,0.5],[1,0.5]];portConstraint=eastwest;whiteSpace=wrap;html=1;" vertex="1" parent="zBz3HRhVmVCNC_SRRcaX-50">
          <mxGeometry y="26" width="140" height="26" as="geometry" />
        </mxCell>
        <mxCell id="zBz3HRhVmVCNC_SRRcaX-62" value="UserModel" style="swimlane;fontStyle=0;childLayout=stackLayout;horizontal=1;startSize=26;fillColor=none;horizontalStack=0;resizeParent=1;resizeParentMax=0;resizeLast=0;collapsible=1;marginBottom=0;whiteSpace=wrap;html=1;" vertex="1" parent="1">
          <mxGeometry x="-190" y="-90" width="140" height="104" as="geometry" />
        </mxCell>
        <mxCell id="zBz3HRhVmVCNC_SRRcaX-63" value="# fillable" style="text;strokeColor=none;fillColor=none;align=left;verticalAlign=top;spacingLeft=4;spacingRight=4;overflow=hidden;rotatable=0;points=[[0,0.5],[1,0.5]];portConstraint=eastwest;whiteSpace=wrap;html=1;" vertex="1" parent="zBz3HRhVmVCNC_SRRcaX-62">
          <mxGeometry y="26" width="140" height="26" as="geometry" />
        </mxCell>
        <mxCell id="zBz3HRhVmVCNC_SRRcaX-64" value="# hidden" style="text;strokeColor=none;fillColor=none;align=left;verticalAlign=top;spacingLeft=4;spacingRight=4;overflow=hidden;rotatable=0;points=[[0,0.5],[1,0.5]];portConstraint=eastwest;whiteSpace=wrap;html=1;" vertex="1" parent="zBz3HRhVmVCNC_SRRcaX-62">
          <mxGeometry y="52" width="140" height="26" as="geometry" />
        </mxCell>
        <mxCell id="zBz3HRhVmVCNC_SRRcaX-65" value="#&amp;nbsp;casts" style="text;strokeColor=none;fillColor=none;align=left;verticalAlign=top;spacingLeft=4;spacingRight=4;overflow=hidden;rotatable=0;points=[[0,0.5],[1,0.5]];portConstraint=eastwest;whiteSpace=wrap;html=1;" vertex="1" parent="zBz3HRhVmVCNC_SRRcaX-62">
          <mxGeometry y="78" width="140" height="26" as="geometry" />
        </mxCell>
        <mxCell id="zBz3HRhVmVCNC_SRRcaX-67" style="edgeStyle=none;rounded=0;orthogonalLoop=1;jettySize=auto;html=1;entryX=1;entryY=0.5;entryDx=0;entryDy=0;endArrow=classic;endFill=1;" edge="1" parent="1" target="zBz3HRhVmVCNC_SRRcaX-63">
          <mxGeometry relative="1" as="geometry">
            <mxPoint x="80" y="-51.00000000000023" as="sourcePoint" />
          </mxGeometry>
        </mxCell>
        <mxCell id="zBz3HRhVmVCNC_SRRcaX-68" style="edgeStyle=none;rounded=0;orthogonalLoop=1;jettySize=auto;html=1;exitX=0.75;exitY=0;exitDx=0;exitDy=0;" edge="1" parent="1" source="zBz3HRhVmVCNC_SRRcaX-50" target="zBz3HRhVmVCNC_SRRcaX-50">
          <mxGeometry relative="1" as="geometry" />
        </mxCell>
        <mxCell id="zBz3HRhVmVCNC_SRRcaX-72" value="dependecy" style="text;html=1;align=center;verticalAlign=middle;resizable=0;points=[];autosize=1;strokeColor=none;fillColor=none;" vertex="1" parent="1">
          <mxGeometry x="390" y="118" width="80" height="30" as="geometry" />
        </mxCell>
        <mxCell id="zBz3HRhVmVCNC_SRRcaX-75" value="association" style="text;html=1;align=center;verticalAlign=middle;resizable=0;points=[];autosize=1;strokeColor=none;fillColor=none;" vertex="1" parent="1">
          <mxGeometry x="520" y="8" width="80" height="30" as="geometry" />
        </mxCell>
      </root>
    </mxGraphModel>
  </diagram>
</mxfile>
